<svg width="21" height="22" viewBox="0 0 21 22" fill="none" xmlns="http://www.w3.org/2000/svg">
<path fill-rule="evenodd" clip-rule="evenodd" d="M11.7488 11.9691L14.9176 15.138L3.72644 21.3553C3.22321 21.6349 2.6765 21.6717 2.19077 21.5272L11.7488 11.9691ZM11.7488 9.93148L2.26858 0.451276C2.7344 0.33281 3.24991 0.379861 3.72644 0.644604L14.8538 6.82647L11.7488 9.93148ZM12.7676 10.9503L16.1637 7.55421L19.2173 9.25061C20.5897 10.0131 20.5897 11.9868 19.2173 12.7493L16.2275 14.4102L12.7676 10.9503ZM10.73 10.9503L1.03889 20.6414C0.8592 20.345 0.753418 19.9936 0.753418 19.606L0.75342 2.39394C0.75342 1.97945 0.874377 1.60638 1.07731 1.29767L10.73 10.9503Z" fill="white"/>
</svg>
